<svg width="407" height="102" viewBox="0 0 407 102" fill="none" xmlns="http://www.w3.org/2000/svg">
<g filter="url(#filter0_d_109_531)">
<rect x="26" y="30" width="351" height="45.2227" rx="22.6113" fill="white"/>
<path d="M142.533 58H141.332L144.804 48.5455H145.986L149.457 58H148.257L145.432 50.0412H145.358L142.533 58ZM142.976 54.3068H147.814V55.3224H142.976V54.3068ZM151.872 53.7344V58H150.782V50.9091H151.835V52.017H151.927C152.093 51.657 152.346 51.3677 152.684 51.1491C153.023 50.9276 153.46 50.8168 153.995 50.8168C154.475 50.8168 154.896 50.9152 155.256 51.1122C155.616 51.3061 155.896 51.6016 156.096 51.9986C156.296 52.3925 156.396 52.8911 156.396 53.4943V58H155.306V53.5682C155.306 53.0111 155.162 52.5772 154.873 52.2663C154.583 51.9524 154.186 51.7955 153.681 51.7955C153.334 51.7955 153.023 51.8709 152.749 52.0217C152.478 52.1725 152.264 52.3925 152.107 52.6818C151.95 52.9711 151.872 53.322 151.872 53.7344ZM158.835 60.6591C158.65 60.6591 158.485 60.6437 158.341 60.6129C158.196 60.5852 158.096 60.5575 158.041 60.5298L158.318 59.5696C158.582 59.6373 158.816 59.6619 159.019 59.6435C159.222 59.625 159.402 59.5342 159.559 59.3711C159.719 59.2111 159.866 58.951 159.998 58.5909L160.201 58.0369L157.579 50.9091H158.761L160.718 56.5597H160.792L162.749 50.9091H163.931L160.921 59.0341C160.786 59.4003 160.618 59.7035 160.418 59.9435C160.218 60.1867 159.986 60.3667 159.721 60.4837C159.459 60.6006 159.164 60.6591 158.835 60.6591ZM170.632 58L168.472 50.9091H169.616L171.149 56.3381H171.223L172.737 50.9091H173.9L175.396 56.3196H175.47L177.003 50.9091H178.148L175.987 58H174.916L173.365 52.5526H173.254L171.703 58H170.632ZM182.32 58.1477C181.637 58.1477 181.047 57.9969 180.552 57.6953C180.059 57.3906 179.679 56.9659 179.411 56.4212C179.147 55.8733 179.014 55.2363 179.014 54.5099C179.014 53.7836 179.147 53.1435 179.411 52.5895C179.679 52.0324 180.052 51.5985 180.529 51.2876C181.009 50.9737 181.569 50.8168 182.209 50.8168C182.578 50.8168 182.943 50.8783 183.303 51.0014C183.663 51.1245 183.991 51.3246 184.286 51.6016C184.582 51.8755 184.817 52.2386 184.993 52.6911C185.168 53.1435 185.256 53.7005 185.256 54.3622V54.8239H179.79V53.8821H184.148C184.148 53.482 184.068 53.125 183.908 52.8111C183.751 52.4972 183.526 52.2494 183.234 52.0678C182.945 51.8862 182.603 51.7955 182.209 51.7955C181.775 51.7955 181.4 51.9032 181.083 52.1186C180.769 52.331 180.527 52.608 180.358 52.9496C180.189 53.2912 180.104 53.6574 180.104 54.0483V54.6761C180.104 55.2116 180.196 55.6656 180.381 56.038C180.569 56.4073 180.829 56.6889 181.161 56.8828C181.493 57.0736 181.88 57.169 182.32 57.169C182.606 57.169 182.865 57.129 183.095 57.049C183.329 56.9659 183.531 56.8428 183.7 56.6797C183.869 56.5135 184 56.3073 184.093 56.0611L185.145 56.3565C185.034 56.7135 184.848 57.0275 184.586 57.2983C184.325 57.5661 184.002 57.7753 183.617 57.9261C183.232 58.0739 182.8 58.1477 182.32 58.1477ZM189.886 58.1477C189.203 58.1477 188.614 57.9969 188.118 57.6953C187.626 57.3906 187.246 56.9659 186.978 56.4212C186.713 55.8733 186.581 55.2363 186.581 54.5099C186.581 53.7836 186.713 53.1435 186.978 52.5895C187.246 52.0324 187.618 51.5985 188.095 51.2876C188.575 50.9737 189.135 50.8168 189.775 50.8168C190.145 50.8168 190.509 50.8783 190.869 51.0014C191.23 51.1245 191.557 51.3246 191.853 51.6016C192.148 51.8755 192.384 52.2386 192.559 52.6911C192.735 53.1435 192.822 53.7005 192.822 54.3622V54.8239H187.356V53.8821H191.714C191.714 53.482 191.634 53.125 191.474 52.8111C191.317 52.4972 191.093 52.2494 190.8 52.0678C190.511 51.8862 190.169 51.7955 189.775 51.7955C189.341 51.7955 188.966 51.9032 188.649 52.1186C188.335 52.331 188.093 52.608 187.924 52.9496C187.755 53.2912 187.67 53.6574 187.67 54.0483V54.6761C187.67 55.2116 187.763 55.6656 187.947 56.038C188.135 56.4073 188.395 56.6889 188.727 56.8828C189.06 57.0736 189.446 57.169 189.886 57.169C190.172 57.169 190.431 57.129 190.662 57.049C190.896 56.9659 191.097 56.8428 191.267 56.6797C191.436 56.5135 191.567 56.3073 191.659 56.0611L192.711 56.3565C192.601 56.7135 192.414 57.0275 192.153 57.2983C191.891 57.5661 191.568 57.7753 191.183 57.9261C190.799 58.0739 190.366 58.1477 189.886 58.1477ZM195.495 55.4148L195.477 54.0668H195.698L198.801 50.9091H200.149L196.843 54.2514H196.751L195.495 55.4148ZM194.48 58V48.5455H195.569V58H194.48ZM198.985 58L196.215 54.4915L196.991 53.7344L200.37 58H198.985Z" fill="black"/>
<path d="M237.533 58H236.332L239.804 48.5455H240.986L244.457 58H243.257L240.432 50.0412H240.358L237.533 58ZM237.976 54.3068H242.814V55.3224H237.976V54.3068ZM248.46 58.1477C247.869 58.1477 247.347 57.9985 246.895 57.6999C246.442 57.3983 246.089 56.9736 245.833 56.4258C245.578 55.8749 245.45 55.224 245.45 54.473C245.45 53.7282 245.578 53.0819 245.833 52.5341C246.089 51.9863 246.444 51.5631 246.9 51.2646C247.355 50.966 247.881 50.8168 248.478 50.8168C248.94 50.8168 249.305 50.8937 249.572 51.0476C249.843 51.1984 250.049 51.3707 250.191 51.5646C250.336 51.7554 250.448 51.9124 250.528 52.0355H250.62V48.5455H251.71V58H250.657V56.9105H250.528C250.448 57.0398 250.334 57.2029 250.186 57.3999C250.039 57.5937 249.828 57.7676 249.554 57.9215C249.28 58.0723 248.915 58.1477 248.46 58.1477ZM248.608 57.169C249.045 57.169 249.414 57.0552 249.716 56.8274C250.017 56.5966 250.246 56.2781 250.403 55.8718C250.56 55.4625 250.639 54.9901 250.639 54.4545C250.639 53.9252 250.562 53.462 250.408 53.065C250.254 52.6649 250.026 52.354 249.725 52.1325C249.423 51.9078 249.051 51.7955 248.608 51.7955C248.146 51.7955 247.761 51.9139 247.453 52.1509C247.149 52.3848 246.92 52.7034 246.766 53.1065C246.615 53.5066 246.539 53.956 246.539 54.4545C246.539 54.9593 246.616 55.4179 246.77 55.8303C246.927 56.2396 247.158 56.5658 247.463 56.8089C247.77 57.049 248.152 57.169 248.608 57.169ZM256.534 58.1477C255.943 58.1477 255.422 57.9985 254.969 57.6999C254.517 57.3983 254.163 56.9736 253.907 56.4258C253.652 55.8749 253.524 55.224 253.524 54.473C253.524 53.7282 253.652 53.0819 253.907 52.5341C254.163 51.9863 254.518 51.5631 254.974 51.2646C255.429 50.966 255.955 50.8168 256.553 50.8168C257.014 50.8168 257.379 50.8937 257.647 51.0476C257.917 51.1984 258.124 51.3707 258.265 51.5646C258.41 51.7554 258.522 51.9124 258.602 52.0355H258.695V48.5455H259.784V58H258.732V56.9105H258.602C258.522 57.0398 258.408 57.2029 258.261 57.3999C258.113 57.5937 257.902 57.7676 257.628 57.9215C257.354 58.0723 256.99 58.1477 256.534 58.1477ZM256.682 57.169C257.119 57.169 257.488 57.0552 257.79 56.8274C258.091 56.5966 258.321 56.2781 258.478 55.8718C258.635 55.4625 258.713 54.9901 258.713 54.4545C258.713 53.9252 258.636 53.462 258.482 53.065C258.328 52.6649 258.101 52.354 257.799 52.1325C257.497 51.9078 257.125 51.7955 256.682 51.7955C256.22 51.7955 255.835 51.9139 255.528 52.1509C255.223 52.3848 254.994 52.7034 254.84 53.1065C254.689 53.5066 254.614 53.956 254.614 54.4545C254.614 54.9593 254.691 55.4179 254.844 55.8303C255.001 56.2396 255.232 56.5658 255.537 56.8089C255.845 57.049 256.226 57.169 256.682 57.169ZM268.449 60.8068C267.923 60.8068 267.471 60.7391 267.092 60.6037C266.713 60.4714 266.398 60.2959 266.146 60.0774C265.896 59.862 265.698 59.6312 265.55 59.3849L266.418 58.7756C266.516 58.9048 266.641 59.0526 266.792 59.2188C266.943 59.388 267.149 59.5342 267.411 59.6573C267.675 59.7835 268.021 59.8466 268.449 59.8466C269.022 59.8466 269.494 59.7081 269.866 59.4311C270.239 59.1541 270.425 58.7202 270.425 58.1293V56.6889H270.333C270.253 56.8182 270.139 56.9782 269.991 57.169C269.846 57.3568 269.637 57.5245 269.363 57.6722C269.092 57.8169 268.726 57.8892 268.265 57.8892C267.692 57.8892 267.178 57.7538 266.723 57.483C266.27 57.2121 265.912 56.8182 265.647 56.3011C265.385 55.7841 265.255 55.1562 265.255 54.4176C265.255 53.6913 265.382 53.0588 265.638 52.5202C265.893 51.9786 266.249 51.56 266.704 51.2646C267.16 50.966 267.686 50.8168 268.283 50.8168C268.745 50.8168 269.111 50.8937 269.382 51.0476C269.656 51.1984 269.865 51.3707 270.01 51.5646C270.157 51.7554 270.271 51.9124 270.351 52.0355H270.462V50.9091H271.515V58.2031C271.515 58.8125 271.376 59.308 271.099 59.6896C270.825 60.0743 270.456 60.3559 269.991 60.5344C269.529 60.716 269.016 60.8068 268.449 60.8068ZM268.412 56.9105C268.849 56.9105 269.219 56.8105 269.52 56.6104C269.822 56.4104 270.051 56.1226 270.208 55.7472C270.365 55.3717 270.444 54.9223 270.444 54.3991C270.444 53.8883 270.367 53.4374 270.213 53.0465C270.059 52.6557 269.831 52.3494 269.529 52.1278C269.228 51.9062 268.855 51.7955 268.412 51.7955C267.951 51.7955 267.566 51.9124 267.258 52.1463C266.953 52.3802 266.724 52.6941 266.57 53.0881C266.42 53.482 266.344 53.919 266.344 54.3991C266.344 54.8916 266.421 55.3271 266.575 55.7056C266.732 56.0811 266.963 56.3765 267.267 56.592C267.575 56.8043 267.957 56.9105 268.412 56.9105ZM277.978 55.1009V50.9091H279.067V58H277.978V56.7997H277.904C277.738 57.1598 277.479 57.466 277.128 57.7184C276.777 57.9677 276.334 58.0923 275.799 58.0923C275.355 58.0923 274.962 57.9954 274.617 57.8015C274.272 57.6045 274.001 57.3091 273.804 56.9151C273.607 56.5181 273.509 56.018 273.509 55.4148V50.9091H274.598V55.3409C274.598 55.858 274.743 56.2704 275.032 56.5781C275.325 56.8859 275.697 57.0398 276.15 57.0398C276.42 57.0398 276.696 56.9705 276.976 56.832C277.259 56.6935 277.496 56.4812 277.687 56.195C277.881 55.9087 277.978 55.544 277.978 55.1009ZM284.036 58.1477C283.352 58.1477 282.763 57.9969 282.267 57.6953C281.775 57.3906 281.395 56.9659 281.127 56.4212C280.863 55.8733 280.73 55.2363 280.73 54.5099C280.73 53.7836 280.863 53.1435 281.127 52.5895C281.395 52.0324 281.767 51.5985 282.244 51.2876C282.725 50.9737 283.285 50.8168 283.925 50.8168C284.294 50.8168 284.659 50.8783 285.019 51.0014C285.379 51.1245 285.707 51.3246 286.002 51.6016C286.298 51.8755 286.533 52.2386 286.709 52.6911C286.884 53.1435 286.972 53.7005 286.972 54.3622V54.8239H281.506V53.8821H285.864C285.864 53.482 285.784 53.125 285.624 52.8111C285.467 52.4972 285.242 52.2494 284.95 52.0678C284.66 51.8862 284.319 51.7955 283.925 51.7955C283.491 51.7955 283.115 51.9032 282.798 52.1186C282.484 52.331 282.243 52.608 282.074 52.9496C281.904 53.2912 281.82 53.6574 281.82 54.0483V54.6761C281.82 55.2116 281.912 55.6656 282.097 56.038C282.284 56.4073 282.544 56.6889 282.877 56.8828C283.209 57.0736 283.595 57.169 284.036 57.169C284.322 57.169 284.58 57.129 284.811 57.049C285.045 56.9659 285.247 56.8428 285.416 56.6797C285.585 56.5135 285.716 56.3073 285.808 56.0611L286.861 56.3565C286.75 56.7135 286.564 57.0275 286.302 57.2983C286.041 57.5661 285.718 57.7753 285.333 57.9261C284.948 58.0739 284.516 58.1477 284.036 58.1477ZM293.652 52.4972L292.673 52.7741C292.611 52.611 292.521 52.4525 292.401 52.2987C292.284 52.1417 292.124 52.0124 291.921 51.9109C291.717 51.8093 291.457 51.7585 291.14 51.7585C290.706 51.7585 290.345 51.8585 290.055 52.0586C289.769 52.2556 289.626 52.5064 289.626 52.8111C289.626 53.0819 289.725 53.2958 289.922 53.4528C290.119 53.6097 290.426 53.7405 290.845 53.8452L291.897 54.1037C292.531 54.2576 293.004 54.493 293.315 54.81C293.626 55.1239 293.781 55.5286 293.781 56.0241C293.781 56.4304 293.664 56.7936 293.43 57.1136C293.199 57.4337 292.876 57.6861 292.461 57.8707C292.045 58.0554 291.562 58.1477 291.011 58.1477C290.288 58.1477 289.689 57.9908 289.215 57.6768C288.741 57.3629 288.441 56.9044 288.315 56.3011L289.349 56.0426C289.448 56.4242 289.634 56.7105 289.908 56.9013C290.185 57.0921 290.546 57.1875 290.993 57.1875C291.5 57.1875 291.904 57.0798 292.202 56.8643C292.504 56.6458 292.655 56.3842 292.655 56.0795C292.655 55.8333 292.568 55.6271 292.396 55.4609C292.224 55.2917 291.959 55.1655 291.602 55.0824L290.42 54.8054C289.771 54.6515 289.294 54.413 288.989 54.0898C288.687 53.7636 288.537 53.3558 288.537 52.8665C288.537 52.4664 288.649 52.1125 288.874 51.8047C289.101 51.4969 289.411 51.2553 289.802 51.0799C290.196 50.9045 290.642 50.8168 291.14 50.8168C291.842 50.8168 292.393 50.9706 292.793 51.2784C293.196 51.5862 293.482 51.9924 293.652 52.4972ZM298.505 50.9091V51.8324H294.83V50.9091H298.505ZM295.901 49.2102H296.991V55.9688C296.991 56.2765 297.035 56.5073 297.124 56.6612C297.217 56.812 297.334 56.9136 297.475 56.9659C297.62 57.0152 297.772 57.0398 297.932 57.0398C298.052 57.0398 298.151 57.0336 298.228 57.0213C298.305 57.0059 298.366 56.9936 298.412 56.9844L298.634 57.9631C298.56 57.9908 298.457 58.0185 298.325 58.0462C298.192 58.0769 298.025 58.0923 297.822 58.0923C297.514 58.0923 297.212 58.0262 296.917 57.8938C296.624 57.7615 296.381 57.5599 296.187 57.2891C295.997 57.0182 295.901 56.6766 295.901 56.2642V49.2102ZM305.039 52.4972L304.061 52.7741C303.999 52.611 303.908 52.4525 303.788 52.2987C303.671 52.1417 303.511 52.0124 303.308 51.9109C303.105 51.8093 302.845 51.7585 302.528 51.7585C302.094 51.7585 301.732 51.8585 301.443 52.0586C301.157 52.2556 301.014 52.5064 301.014 52.8111C301.014 53.0819 301.112 53.2958 301.309 53.4528C301.506 53.6097 301.814 53.7405 302.233 53.8452L303.285 54.1037C303.919 54.2576 304.392 54.493 304.702 54.81C305.013 55.1239 305.169 55.5286 305.169 56.0241C305.169 56.4304 305.052 56.7936 304.818 57.1136C304.587 57.4337 304.264 57.6861 303.848 57.8707C303.433 58.0554 302.95 58.1477 302.399 58.1477C301.676 58.1477 301.077 57.9908 300.603 57.6768C300.129 57.3629 299.829 56.9044 299.703 56.3011L300.737 56.0426C300.835 56.4242 301.022 56.7105 301.295 56.9013C301.572 57.0921 301.934 57.1875 302.38 57.1875C302.888 57.1875 303.291 57.0798 303.59 56.8643C303.891 56.6458 304.042 56.3842 304.042 56.0795C304.042 55.8333 303.956 55.6271 303.784 55.4609C303.611 55.2917 303.347 55.1655 302.99 55.0824L301.808 54.8054C301.158 54.6515 300.681 54.413 300.377 54.0898C300.075 53.7636 299.924 53.3558 299.924 52.8665C299.924 52.4664 300.037 52.1125 300.261 51.8047C300.489 51.4969 300.798 51.2553 301.189 51.0799C301.583 50.9045 302.029 50.8168 302.528 50.8168C303.23 50.8168 303.781 50.9706 304.181 51.2784C304.584 51.5862 304.87 51.9924 305.039 52.4972Z" fill="black"/>
<path d="M43.4513 58H41.3093L44.5732 48.5455H47.1491L50.4084 58H48.2663L45.8981 50.706H45.8242L43.4513 58ZM43.3175 54.2837H48.3771V55.8441H43.3175V54.2837ZM53.476 53.9006V58H51.5094V50.9091H53.3837V52.1602H53.4668C53.6238 51.7478 53.8869 51.4215 54.2562 51.1815C54.6255 50.9383 55.0733 50.8168 55.5996 50.8168C56.092 50.8168 56.5214 50.9245 56.8876 51.1399C57.2538 51.3554 57.5385 51.6631 57.7417 52.0632C57.9448 52.4602 58.0463 52.9342 58.0463 53.4851V58H56.0797V53.8359C56.0828 53.402 55.972 53.0634 55.7473 52.8203C55.5227 52.5741 55.2134 52.451 54.8194 52.451C54.5547 52.451 54.3208 52.5079 54.1177 52.6218C53.9177 52.7357 53.7607 52.9019 53.6468 53.1204C53.536 53.3358 53.4791 53.5959 53.476 53.9006ZM60.5566 60.6591C60.3073 60.6591 60.0734 60.6391 59.8548 60.5991C59.6394 60.5621 59.4609 60.5144 59.3193 60.456L59.7625 58.9879C59.9933 59.0587 60.2011 59.0972 60.3857 59.1033C60.5735 59.1095 60.7351 59.0664 60.8705 58.9741C61.009 58.8817 61.1213 58.7248 61.2075 58.5032L61.3229 58.2031L58.7792 50.9091H60.8474L62.3154 56.1165H62.3893L63.8712 50.9091H65.9532L63.1972 58.7663C63.0648 59.148 62.8848 59.4804 62.657 59.7635C62.4324 60.0497 62.1477 60.2698 61.803 60.4237C61.4583 60.5806 61.0428 60.6591 60.5566 60.6591ZM68.3584 58L66.4287 50.9091H68.4184L69.5171 55.6733H69.5818L70.7267 50.9091H72.6794L73.8428 55.6456H73.9028L74.983 50.9091H76.9681L75.0431 58H72.961L71.7423 53.5405H71.6546L70.4358 58H68.3584ZM79.9838 53.9006V58H78.0172V48.5455H79.9284V52.1602H80.0115C80.1716 51.7416 80.4301 51.4138 80.7871 51.1768C81.1441 50.9368 81.5919 50.8168 82.1305 50.8168C82.6229 50.8168 83.0523 50.9245 83.4185 51.1399C83.7878 51.3523 84.074 51.6585 84.2772 52.0586C84.4834 52.4556 84.5849 52.9311 84.5819 53.4851V58H82.6152V53.8359C82.6183 53.3989 82.5075 53.0588 82.2828 52.8157C82.0613 52.5726 81.7504 52.451 81.3503 52.451C81.0826 52.451 80.8456 52.5079 80.6394 52.6218C80.4363 52.7357 80.2762 52.9019 80.1593 53.1204C80.0454 53.3358 79.9869 53.5959 79.9838 53.9006ZM89.3611 58.1385C88.6317 58.1385 88.0038 57.9908 87.4775 57.6953C86.9543 57.3968 86.5512 56.9751 86.268 56.4304C85.9849 55.8826 85.8433 55.2347 85.8433 54.4869C85.8433 53.7575 85.9849 53.1173 86.268 52.5664C86.5512 52.0155 86.9497 51.5862 87.4637 51.2784C87.9807 50.9706 88.587 50.8168 89.2826 50.8168C89.7504 50.8168 90.1859 50.8922 90.589 51.043C90.9953 51.1907 91.3492 51.4138 91.6508 51.7124C91.9555 52.0109 92.1925 52.3864 92.3618 52.8388C92.531 53.2881 92.6157 53.8144 92.6157 54.4176V54.9577H86.6281V53.739H90.7645C90.7645 53.4558 90.7029 53.205 90.5798 52.9865C90.4567 52.768 90.2859 52.5972 90.0674 52.4741C89.8519 52.3479 89.6011 52.2848 89.3149 52.2848C89.0164 52.2848 88.7517 52.354 88.5209 52.4925C88.2931 52.628 88.1146 52.8111 87.9854 53.0419C87.8561 53.2696 87.7899 53.5236 87.7868 53.8036V54.9624C87.7868 55.3132 87.8515 55.6164 87.9807 55.8718C88.1131 56.1272 88.2993 56.3242 88.5393 56.4627C88.7794 56.6012 89.0641 56.6705 89.3934 56.6705C89.6119 56.6705 89.8119 56.6397 89.9935 56.5781C90.1751 56.5166 90.3305 56.4242 90.4598 56.3011C90.589 56.178 90.6875 56.0272 90.7552 55.8487L92.5741 55.9688C92.4818 56.4058 92.2925 56.7874 92.0063 57.1136C91.7232 57.4368 91.3569 57.6892 90.9076 57.8707C90.4613 58.0492 89.9458 58.1385 89.3611 58.1385ZM93.8991 58V50.9091H95.8057V52.1463H95.8795C96.0088 51.7062 96.2258 51.3738 96.5305 51.1491C96.8351 50.9214 97.186 50.8075 97.583 50.8075C97.6815 50.8075 97.7877 50.8137 97.9015 50.826C98.0154 50.8383 98.1154 50.8552 98.2016 50.8768V52.6218C98.1093 52.5941 97.9816 52.5695 97.8184 52.5479C97.6553 52.5264 97.5061 52.5156 97.3706 52.5156C97.0814 52.5156 96.8228 52.5787 96.5951 52.7049C96.3704 52.828 96.1919 53.0004 96.0596 53.2219C95.9303 53.4435 95.8657 53.699 95.8657 53.9883V58H93.8991ZM102.12 58.1385C101.39 58.1385 100.763 57.9908 100.236 57.6953C99.7131 57.3968 99.31 56.9751 99.0268 56.4304C98.7437 55.8826 98.6021 55.2347 98.6021 54.4869C98.6021 53.7575 98.7437 53.1173 99.0268 52.5664C99.31 52.0155 99.7085 51.5862 100.222 51.2784C100.74 50.9706 101.346 50.8168 102.041 50.8168C102.509 50.8168 102.945 50.8922 103.348 51.043C103.754 51.1907 104.108 51.4138 104.41 51.7124C104.714 52.0109 104.951 52.3864 105.121 52.8388C105.29 53.2881 105.374 53.8144 105.374 54.4176V54.9577H99.3869V53.739H103.523C103.523 53.4558 103.462 53.205 103.339 52.9865C103.215 52.768 103.045 52.5972 102.826 52.4741C102.611 52.3479 102.36 52.2848 102.074 52.2848C101.775 52.2848 101.51 52.354 101.28 52.4925C101.052 52.628 100.873 52.8111 100.744 53.0419C100.615 53.2696 100.549 53.5236 100.546 53.8036V54.9624C100.546 55.3132 100.61 55.6164 100.74 55.8718C100.872 56.1272 101.058 56.3242 101.298 56.4627C101.538 56.6012 101.823 56.6705 102.152 56.6705C102.371 56.6705 102.571 56.6397 102.752 56.5781C102.934 56.5166 103.089 56.4242 103.219 56.3011C103.348 56.178 103.446 56.0272 103.514 55.8487L105.333 55.9688C105.241 56.4058 105.051 56.7874 104.765 57.1136C104.482 57.4368 104.116 57.6892 103.666 57.8707C103.22 58.0492 102.705 58.1385 102.12 58.1385Z" fill="black"/>
<rect x="337" y="38" width="31" height="31" rx="15.5" fill="#FF004E"/>
<path d="M348.663 50.5364C348.294 51.099 348.097 51.7615 348.097 52.4401C348.098 53.3501 348.453 54.2205 349.08 54.8609C349.707 55.5011 350.555 55.8592 351.437 55.8602L348.663 50.5364ZM348.663 50.5364C349.031 49.9738 349.553 49.5369 350.162 49.2794M348.663 50.5364L350.162 49.2794M350.162 49.2794C350.771 49.0218 351.441 48.9546 352.087 49.0858M350.162 49.2794L352.087 49.0858M352.087 49.0858C352.732 49.2169 353.327 49.5409 353.795 50.0184M352.087 49.0858L353.795 50.0184M353.795 50.0184C354.263 50.4961 354.583 51.1059 354.712 51.7712M353.795 50.0184L354.712 51.7712M354.712 51.7712C354.842 52.4366 354.775 53.1262 354.521 53.7524M354.712 51.7712L354.521 53.7524M354.521 53.7524C354.267 54.3785 353.838 54.912 353.289 55.2865M354.521 53.7524L353.289 55.2865M353.289 55.2865C352.74 55.6609 352.096 55.8601 351.438 55.8602L353.289 55.2865ZM358.621 59.143L358.963 58.7931L358.621 58.4432L355.698 55.4598C356.372 54.4732 356.699 53.2788 356.618 52.0724C356.527 50.715 355.927 49.4434 354.94 48.5229C353.952 47.6022 352.652 47.1041 351.311 47.1352C349.97 47.1663 348.694 47.7241 347.748 48.6894C346.803 49.6544 346.26 50.9523 346.23 52.3124C346.2 53.6726 346.684 54.994 347.585 56.0015C348.487 57.0094 349.736 57.6258 351.074 57.719C352.258 57.8015 353.427 57.4694 354.392 56.7875L357.303 59.7589L357.66 60.1235L358.017 59.7589L358.621 59.143Z" fill="white" stroke="white"/>
<path d="M126 39L126 66" stroke="#101010"/>
<path d="M225 39L225 66" stroke="#101010"/>
<rect x="26.5" y="30.5" width="350" height="44.2227" rx="22.1113" stroke="white"/>
</g>
<defs>
<filter id="filter0_d_109_531" x="0" y="0" width="407" height="101.223" filterUnits="userSpaceOnUse" color-interpolation-filters="sRGB">
<feFlood flood-opacity="0" result="BackgroundImageFix"/>
<feColorMatrix in="SourceAlpha" type="matrix" values="0 0 0 0 0 0 0 0 0 0 0 0 0 0 0 0 0 0 127 0" result="hardAlpha"/>
<feMorphology radius="14" operator="dilate" in="SourceAlpha" result="effect1_dropShadow_109_531"/>
<feOffset dx="2" dy="-2"/>
<feGaussianBlur stdDeviation="7"/>
<feComposite in2="hardAlpha" operator="out"/>
<feColorMatrix type="matrix" values="0 0 0 0 0.804167 0 0 0 0 0.784063 0 0 0 0 0.784063 0 0 0 0.35 0"/>
<feBlend mode="normal" in2="BackgroundImageFix" result="effect1_dropShadow_109_531"/>
<feBlend mode="normal" in="SourceGraphic" in2="effect1_dropShadow_109_531" result="shape"/>
</filter>
</defs>
</svg>
