<svg width="16" height="17" viewBox="0 0 16 17" fill="none" xmlns="http://www.w3.org/2000/svg">
<path d="M15.9987 8.49894V8.49469C15.9987 5.97951 14.9681 3.72073 13.3316 2.16742L13.3236 2.16034C13.3034 2.13719 13.2808 2.11652 13.2562 2.09872L13.2549 2.09801C11.8014 0.741984 9.93224 -0.00398894 7.998 1.60431e-05C5.97684 1.60431e-05 4.13166 0.797565 2.72511 2.11359L2.73377 2.1058C2.71682 2.11946 2.70119 2.13489 2.68711 2.15184V2.15255C1.84153 2.94811 1.1647 3.92549 0.701449 5.01996C0.238197 6.11443 -0.00089785 7.301 2.53356e-06 8.50106C2.53356e-06 11.0155 1.02925 13.2743 2.66445 14.8283L2.67245 14.8354C2.69362 14.8609 2.71731 14.884 2.74311 14.9041L2.74444 14.9048C4.19754 16.2588 6.06528 17.0037 7.998 17C9.93975 17.0032 11.8155 16.2514 13.2716 14.8864L13.2629 14.8942C14.1231 14.0995 14.8127 13.1178 15.2849 12.0154C15.7571 10.9131 16.001 9.71579 16 8.5046V8.49965L15.9987 8.49894ZM13.0242 14.0272C12.628 13.6867 12.2018 13.3873 11.7517 13.1334L11.7084 13.1107C12.117 11.8591 12.363 10.4163 12.3863 8.91542V8.90409H15.2267C15.1309 10.8458 14.3444 12.6764 13.0262 14.0251L13.0242 14.0272ZM8.38063 12.9612C9.2359 13.0101 10.0352 13.2099 10.7724 13.535L10.7244 13.5166C10.1338 14.9473 9.30256 15.9304 8.38063 16.1465V12.9612ZM8.38063 12.1509V8.90409H11.6257C11.6 10.2486 11.3805 11.581 10.9751 12.855L11.0011 12.7622C10.1735 12.4008 9.29321 12.1942 8.3993 12.1517L8.3813 12.1509H8.38063ZM8.38063 8.09379V4.84693C9.29867 4.80241 10.2025 4.58887 11.0517 4.21583L10.9991 4.23637C11.3691 5.38311 11.5964 6.70481 11.6257 8.07891V8.09379H8.38063ZM8.38063 4.03663V0.852812C9.30256 1.06884 10.1338 2.04772 10.7244 3.48274C10.0352 3.78731 9.2359 3.98634 8.39997 4.03592L8.38063 4.03663ZM10.2831 1.20342C11.0686 1.48181 11.8033 1.90157 12.455 2.44437L12.4396 2.43162C12.1443 2.67811 11.813 2.91043 11.4637 3.1123L11.4264 3.13213C11.1441 2.42434 10.756 1.76969 10.2771 1.19351L10.2831 1.2013V1.20342ZM7.6167 0.854937V4.03663C6.79443 3.99206 5.98544 3.79801 5.2249 3.46291L5.27289 3.48132C5.86618 2.05055 6.69611 1.06814 7.61803 0.852104L7.6167 0.854937ZM4.57162 3.13C4.21027 2.92343 3.86596 2.68483 3.54237 2.41674L3.55837 2.42949C4.19107 1.90262 4.90274 1.49269 5.66353 1.21688L5.71419 1.20059C5.24784 1.76116 4.86785 2.39657 4.58829 3.08326L4.57162 3.1293V3.13ZM7.61803 4.84622V8.09308H4.37297C4.4023 6.7041 4.62962 5.38241 5.02558 4.14288L4.99958 4.23566C5.82689 4.59652 6.70664 4.80284 7.60003 4.84551L7.61803 4.84622ZM7.61803 8.90338V12.1502C6.7 12.1948 5.79621 12.4083 4.94692 12.7813L4.99958 12.7608C4.62962 11.6148 4.4023 10.2924 4.37297 8.91825V8.90338H7.61803ZM7.61803 12.9605V16.1444C6.69611 15.9283 5.86485 14.9494 5.27423 13.5144C5.9635 13.2099 6.76277 13.0115 7.5987 12.962L7.61803 12.9612V12.9605ZM5.71819 15.7937C4.93289 15.5162 4.19828 15.0974 3.54637 14.5556L3.56237 14.5684C3.85768 14.3219 4.18899 14.0896 4.53829 13.8877L4.57562 13.8679C4.85552 14.5759 5.2436 15.23 5.72419 15.8037L5.71819 15.7966V15.7937ZM11.427 13.8672C11.8137 14.0903 12.145 14.3219 12.4563 14.5804L12.4403 14.5677C11.8076 15.0945 11.0959 15.5045 10.3351 15.7803L10.2845 15.7966C10.7508 15.2363 11.1308 14.6011 11.4104 13.9146L11.427 13.8686V13.8672ZM15.2267 8.09379H12.3863C12.3659 6.62828 12.1278 5.17538 11.681 3.78873L11.7084 3.88647C12.1793 3.62303 12.6251 3.31181 13.0396 2.95718L13.0236 2.96993C14.339 4.3136 15.1258 6.13734 15.2254 8.07325L15.2261 8.09308L15.2267 8.09379ZM2.97442 2.97064C3.35839 3.30212 3.78969 3.60598 4.24698 3.86451L4.29031 3.88718C3.88168 5.13875 3.6357 6.58156 3.61237 8.08245V8.09379H0.771271C0.867058 6.15205 1.65363 4.32152 2.97175 2.97276L2.97375 2.97064H2.97442ZM0.771938 8.90409H3.61237C3.6328 10.3696 3.87082 11.8225 4.31764 13.2091L4.29031 13.1114C3.78969 13.394 3.35906 13.6979 2.95909 14.0407L2.97509 14.0279C1.65969 12.6843 0.872839 10.8605 0.773271 8.92463L0.772605 8.90479L0.771938 8.90409Z" fill="black"/>
</svg>
